<svg enable-background="new 0 0 512 512" viewBox="0 0 512 512" xmlns="http://www.w3.org/2000/svg"><path d="m503.172 423.724h-494.344c-4.875 0-8.828-3.953-8.828-8.828v-317.793c0-4.875 3.953-8.828 8.828-8.828h494.345c4.875 0 8.828 3.953 8.828 8.828v317.793c-.001 4.876-3.954 8.828-8.829 8.828z" fill="#ff4b55"/><g fill="#ffe15a"><path d="m85.007 140.732 8.416 25.234 26.6.206c3.444.026 4.872 4.422 2.101 6.467l-21.398 15.801 8.023 25.362c1.038 3.284-2.7 5.999-5.502 3.997l-21.64-15.469-21.64 15.468c-2.802 2.003-6.54-.714-5.502-3.997l8.023-25.362-21.398-15.8c-2.771-2.046-1.343-6.441 2.101-6.467l26.6-.206 8.416-25.234c1.09-3.268 5.711-3.268 6.8 0z"/><path d="m181.599 146.95 6.035 8.23 9.739-3.046c1.261-.394 2.298 1.044 1.526 2.115l-5.962 8.281 5.906 8.321c.765 1.077-.282 2.508-1.54 2.105l-9.719-3.111-6.089 8.189c-.788 1.06-2.473.506-2.478-.814l-.045-10.205-9.67-3.261c-1.251-.423-1.246-2.195.009-2.609l9.69-3.196.114-10.204c.014-1.319 1.703-1.86 2.484-.795z"/><path d="m144.857 122.42 10.145 1.102 4.328-9.241c.561-1.196 2.321-.991 2.591.302l2.086 9.988 10.126 1.26c1.311.163 1.66 1.901.513 2.558l-8.855 5.07 1.931 10.02c.25 1.298-1.295 2.166-2.274 1.279l-7.559-6.855-8.932 4.932c-1.156.639-2.461-.563-1.919-1.768l4.183-9.308-7.452-6.972c-.964-.898-.225-2.509 1.088-2.367z"/><path d="m160.895 221.313-6.035 8.23-9.739-3.046c-1.261-.394-2.298 1.044-1.526 2.115l5.962 8.281-5.906 8.321c-.765 1.077.282 2.508 1.54 2.105l9.719-3.111 6.089 8.189c.788 1.06 2.473.506 2.478-.814l.045-10.205 9.67-3.261c1.252-.423 1.246-2.195-.009-2.609l-9.69-3.196-.114-10.204c-.016-1.318-1.703-1.861-2.484-.795z"/><path d="m197.635 198.262-10.145 1.102-4.328-9.241c-.561-1.196-2.321-.991-2.591.302l-2.087 9.988-10.126 1.26c-1.311.163-1.66 1.901-.513 2.558l8.855 5.07-1.931 10.02c-.25 1.298 1.295 2.166 2.274 1.279l7.559-6.855 8.932 4.932c1.156.639 2.461-.563 1.919-1.768l-4.183-9.308 7.452-6.972c.967-.898.228-2.509-1.087-2.367z"/></g></svg>