<svg enable-background="new 0 0 512.001 512.001" viewBox="0 0 512.001 512.001" xmlns="http://www.w3.org/2000/svg"><path d="m503.172 423.725h-494.344c-4.875 0-8.828-3.953-8.828-8.828v-317.793c0-4.875 3.953-8.828 8.828-8.828h494.345c4.875 0 8.828 3.953 8.828 8.828v317.793c-.001 4.875-3.954 8.828-8.829 8.828z" fill="#41479b"/><path d="m512 97.104c0-4.875-3.953-8.828-8.828-8.828h-39.495l-163.54 107.147v-107.147h-88.276v107.147l-163.539-107.147h-39.494c-4.875 0-8.828 3.953-8.828 8.828v22.831l140.309 91.927h-140.309v88.276h140.309l-140.309 91.928v22.831c0 4.875 3.953 8.828 8.828 8.828h39.495l163.54-107.147v107.147h88.276v-107.147l163.54 107.147h39.495c4.875 0 8.828-3.953 8.828-8.828v-22.831l-140.309-91.927h140.307v-88.276h-140.309l140.309-91.928z" fill="#f5f5f5"/><g fill="#ff4b55"><path d="m512 229.518h-229.517v-141.242h-52.966v141.242h-229.517v52.965h229.517v141.242h52.966v-141.242h229.517z"/><path d="m178.948 300.138-178.698 115.997c.625 4.263 4.14 7.59 8.577 7.59h12.159l190.39-123.586h-32.428z"/><path d="m346.388 300.138h-32.428l190.113 123.404c4.431-.472 7.928-4.09 7.928-8.646v-7.258z"/><path d="m0 106.849 161.779 105.014h32.428l-189.064-122.726c-3.02 1.403-5.143 4.418-5.143 7.967z"/><path d="m332.566 211.863 179.127-116.277c-.744-4.122-4.184-7.309-8.521-7.309h-12.647l-190.387 123.586z"/></g></svg>